<svg width="108" height="21" viewBox="0 0 108 21" fill="none" xmlns="http://www.w3.org/2000/svg">
<path fill-rule="evenodd" clip-rule="evenodd" d="M17.6332 6.65902C17.6332 4.7027 16.0473 3.11679 14.0909 3.11679L1.55839 3.11679L1.55839 0.5L14.0909 0.500001C17.4925 0.500001 20.25 3.25749 20.25 6.65902V20.4588H5.51549C2.60744 20.4588 0.25 18.1014 0.25 15.1933L0.25 13.2553C0.25 10.3473 2.60744 7.98983 5.51548 7.98983H17.6332V6.65902ZM17.6332 10.6066L5.51548 10.6066C4.05265 10.6066 2.86679 11.7925 2.86679 13.2553V15.1933C2.86679 16.6562 4.05265 17.842 5.51549 17.842L17.6332 17.842L17.6332 10.6066Z" fill="white" style="fill:white;fill-opacity:1;"/>
<path fill-rule="evenodd" clip-rule="evenodd" d="M46.0549 3.11679L65.111 3.11679V0.500002L46.0549 0.500001V3.11679Z" fill="white" style="fill:white;fill-opacity:1;"/>
<path fill-rule="evenodd" clip-rule="evenodd" d="M54.2746 7.32408V20.5H56.8914V7.32408H54.2746Z" fill="white" style="fill:white;fill-opacity:1;"/>
<path fill-rule="evenodd" clip-rule="evenodd" d="M70.8389 6.65902C70.8389 4.7027 72.4248 3.11679 74.3811 3.11679L85.0477 3.11679V0.5L74.3811 0.500001C70.9796 0.500001 68.2221 3.25749 68.2221 6.65902V20.5H70.8389V6.65902Z" fill="white" style="fill:white;fill-opacity:1;"/>
<path fill-rule="evenodd" clip-rule="evenodd" d="M103.219 20.4588C105.634 20.4588 107.591 18.5014 107.591 16.0869V4.87197C107.591 2.45741 105.634 0.500022 103.219 0.500022L92.5307 0.500023C90.1161 0.500023 88.1588 2.45741 88.1588 4.87197V16.0869C88.1588 18.5014 90.1161 20.4588 92.5307 20.4588H103.219ZM104.975 16.0869C104.975 17.0562 104.189 17.842 103.219 17.842H92.5307C91.5614 17.842 90.7755 17.0562 90.7755 16.0869V4.87197C90.7755 3.90262 91.5614 3.11681 92.5307 3.11681L103.219 3.11681C104.189 3.11681 104.975 3.90262 104.975 4.87197V16.0869Z" fill="white" style="fill:white;fill-opacity:1;"/>
<path fill-rule="evenodd" clip-rule="evenodd" d="M23.9522 3.11679H42.8173V0.5L23.9522 0.5L23.9522 3.11679Z" fill="white" style="fill:white;fill-opacity:1;"/>
<path fill-rule="evenodd" clip-rule="evenodd" d="M41.5089 14.232C41.5089 12.2155 39.8742 10.5808 37.8577 10.5808L23.961 10.5808V7.964L37.8577 7.964C41.3194 7.964 44.1257 10.7703 44.1257 14.232C44.1257 17.6937 41.3194 20.5 37.8577 20.5L23.961 20.5V17.8832H37.8577C39.8742 17.8832 41.5089 16.2485 41.5089 14.232Z" fill="white" style="fill:white;fill-opacity:1;"/>
</svg>
