<svg width="160" height="24" fill="none" xmlns="http://www.w3.org/2000/svg"><path fill-rule="evenodd" clip-rule="evenodd" d="M.119 12.287a.406.406 0 0 1 0-.574l2.92-2.92c.229-.229.357-.538.357-.861v-4.13c0-.225.182-.406.406-.406H7.89c.35 0 .685-.14.932-.386L11.713.119a.406.406 0 0 1 .574 0l2.92 2.92c.229.229.538.357.86.357h4.131c.224 0 .406.181.406.405v4.131c0 .323.128.632.357.86l2.92 2.921a.406.406 0 0 1 0 .574l-2.92 2.92a1.217 1.217 0 0 0-.357.86v4.131a.406.406 0 0 1-.405.406h-4.13c-.324 0-.633.128-.861.356l-2.921 2.921a.406.406 0 0 1-.574 0l-2.92-2.92a1.217 1.217 0 0 0-.861-.357h-4.13a.406.406 0 0 1-.406-.406v-4.13c0-.323-.128-.632-.356-.86L.119 12.287Zm21.078-.004c.305-.066.305-.5 0-.566l-7.155-1.537a.29.29 0 0 1-.222-.222l-1.537-7.156c-.065-.304-.5-.304-.566 0L10.18 9.958a.29.29 0 0 1-.222.222l-7.155 1.537c-.305.065-.305.5 0 .566l7.155 1.536a.29.29 0 0 1 .222.223l1.537 7.155c.066.305.5.305.566 0l1.537-7.155a.29.29 0 0 1 .222-.223l7.155-1.536Z" fill="#fff" style="fill:#fff;fill-opacity:1"/><g clip-path="url(#a)" fill-rule="evenodd" clip-rule="evenodd" fill="#fff"><path d="M61.383 8.159a3.542 3.542 0 0 0-3.542-3.542H45.308V2h12.533A6.159 6.159 0 0 1 64 8.159v13.8H49.266A5.265 5.265 0 0 1 44 16.693v-1.938a5.265 5.265 0 0 1 5.266-5.265h12.117V8.159Zm0 3.948H49.266a2.649 2.649 0 0 0-2.65 2.648v1.938a2.649 2.649 0 0 0 2.65 2.649h12.117v-7.235ZM89.805 4.617h19.056V2H89.805v2.617ZM98.025 8.824V22h2.616V8.824h-2.616ZM114.589 8.159a3.542 3.542 0 0 1 3.542-3.542h10.667V2h-10.667a6.16 6.16 0 0 0-6.159 6.159V22h2.617V8.159ZM146.969 21.959a4.372 4.372 0 0 0 4.372-4.372V6.372A4.372 4.372 0 0 0 146.969 2h-10.688a4.372 4.372 0 0 0-4.372 4.372v11.215a4.372 4.372 0 0 0 4.372 4.372h10.688Zm1.756-4.372c0 .97-.786 1.755-1.756 1.755h-10.688c-.97 0-1.755-.786-1.755-1.755V6.372c0-.97.785-1.755 1.755-1.755h10.688c.97 0 1.756.786 1.756 1.755v11.215ZM67.702 4.617h18.865V2H67.702v2.617ZM85.259 15.732a3.651 3.651 0 0 0-3.651-3.651H67.71V9.464h13.897a6.268 6.268 0 0 1 0 12.536H67.71v-2.617h13.897a3.651 3.651 0 0 0 3.65-3.651Z" style="fill:#fff;fill-opacity:1"/></g><defs><clipPath id="a"><path fill="#fff" style="fill:#fff;fill-opacity:1" transform="translate(44 2)" d="M0 0h107.5v20H0z"/></clipPath></defs></svg>